<svg version="1.2" xmlns="http://www.w3.org/2000/svg" viewBox="0 0 238 274" width="238" height="274">
	<title>fajn-svg</title>
	<style>
		.s0 { fill: #ffffff } 
		.s1 { fill: #ff7d05 } 
	</style>
	<path id="Layer" class="s0" d="m67.1 116.5h-7.1v33.5h-13.2v-33.5h-4.8v-11.4h4.8v-1.3c0-5.5 1.5-9.7 4.6-12.6 3-2.9 7.5-4.3 13.4-4.3 1 0 1.7 0 2.2 0.1v11.7c-2.5-0.2-4.3 0.2-5.3 1.1-1 0.9-1.5 2.6-1.5 4.9v0.4h7.1z"/>
	<path id="Layer" fill-rule="evenodd" class="s0" d="m73.2 115.3c1.7-3.5 4-6.2 6.9-8 2.9-1.9 6.1-2.8 9.7-2.8 3 0 5.7 0.6 8 1.9 2.3 1.3 4.1 3 5.3 5.1v-6.5h13.2v44.9h-13.2v-6.4q-1.9 3.2-5.4 5.1c-2.3 1.3-5 1.9-8 1.9-3.5 0-6.7-0.9-9.6-2.9q-4.4-2.8-6.9-8.1c-1.7-3.5-2.5-7.6-2.5-12.2 0-4.5 0.8-8.5 2.5-12zm27.1 4.1c-1.8-2-4.1-3-6.7-3-2.6 0-4.9 1-6.7 2.9-1.8 2-2.8 4.6-2.8 8.1 0 3.4 0.9 6.2 2.8 8.2 1.8 2 4.1 3 6.7 3 2.6 0 4.9-1 6.7-3 1.8-2 2.8-4.7 2.8-8.1 0-3.4-1-6.1-2.8-8.1z"/>
	<path id="Layer" class="s0" d="m191.4 109.7c3 3.4 4.5 8.1 4.5 14v26.2h-13.2v-24.4c0-3-0.7-5.3-2.2-7-1.5-1.7-3.5-2.5-6-2.5-2.5 0-4.5 0.8-6 2.5-1.5 1.7-2.2 4-2.2 7v24.4h-13.2v-44.9h13.2v5.9c1.3-2 3.1-3.6 5.4-4.7 2.3-1.2 4.8-1.7 7.7-1.7 4.9 0.1 8.9 1.8 12 5.2z"/>
	<path id="Layer" class="s1" d="m120.2 89.5l-0.8-1.3h14.3l0.2 0.5c1.8 3.6 3.3 7.3 4.5 11h-13.2c-1.4-3.5-3-6.9-5-10.2z"/>
	<path id="Layer" class="s0" d="m142.2 124.3c0 12.5-2.8 24.5-8.3 35.7l-0.2 0.5h-14.3l0.8-1.3c6.2-10.5 9.5-22.6 9.5-34.8 0-6.5-0.9-12.9-2.7-19h13c1.5 6 2.2 12.4 2.2 18.9z"/>
	<path id="Layer" class="s1" d="m118.9 16.7c41.5 0 80.8 22.1 102.5 57.7l0.3 0.5h6.7l-0.8-1.4c-22.5-38.6-64.1-62.6-108.7-62.6-44.6 0-86.2 24-108.7 62.6l-0.8 1.4h6.7l0.3-0.5c22.1-36.2 60.4-57.7 102.5-57.7z"/>
	<path id="Layer" class="s1" d="m118.9 262.5c44.5 0 86.2-24 108.7-62.6l0.8-1.4h-6.7l-0.3 0.5c-21.6 35.6-60.9 57.7-102.5 57.7-41.6 0-80.8-22.1-102.5-57.7l-0.3-0.5h-6.7l0.8 1.4c22.6 38.6 64.2 62.6 108.7 62.6z"/>
	<path id="Layer" class="s1" d="m119 234.6c28.7 0 55.9-12.6 74.5-34.5l1.3-1.5h-7.7l-0.3 0.3c-17.4 19-42.2 30-67.9 30-25.7 0-50.6-10.9-68-30l-0.3-0.3h-7.7l1.3 1.5c18.8 21.9 46 34.5 74.8 34.5z"/>
	<path id="Layer" class="s1" d="m119 44.6c25.7 0 50.5 10.9 67.9 30l0.3 0.3h7.7l-1.3-1.5c-18.6-22-45.8-34.5-74.5-34.5-28.7 0-56.1 12.4-74.7 34.4l-1.3 1.5h7.7l0.3-0.3c17.3-19 42.1-29.9 67.9-29.9z"/>
	<g id="Layer">
		<path id="Layer" fill-rule="evenodd" class="s0" d="m86.7 184.3l-2.8-5.2h-0.4v5.2h-3.9v-14h6.1c1.1 0 2.1 0.2 2.9 0.6 0.8 0.4 1.4 0.9 1.8 1.6 0.4 0.7 0.6 1.4 0.6 2.3 0 1-0.3 1.8-0.8 2.5-0.5 0.7-1.3 1.2-2.3 1.5l3.2 5.5zm-3.2-7.9h1.9c0.5 0 0.9-0.1 1.2-0.4 0.3-0.2 0.4-0.6 0.4-1.1 0-0.5-0.1-0.8-0.4-1.1-0.3-0.3-0.7-0.4-1.2-0.4h-1.9z"/>
		<path id="Layer" fill-rule="evenodd" class="s0" d="m105.6 182h-5l-0.8 2.3h-4.1l5.1-14h4.5l5.1 14h-4.1zm-1-3l-1.5-4.5-1.5 4.5z"/>
		<path id="Layer" fill-rule="evenodd" class="s0" d="m125.1 171.1c1.1 0.6 2 1.4 2.6 2.5q0.9 1.7 0.9 3.6c0 1.3-0.3 2.6-0.9 3.6-0.6 1.1-1.5 1.9-2.6 2.5-1.1 0.6-2.4 0.9-3.8 0.9h-5.5v-14h5.5c1.4 0.1 2.7 0.4 3.8 0.9zm-1.5 8.8c0.7-0.6 1-1.5 1-2.6 0-1.1-0.3-2-1-2.7-0.7-0.6-1.5-0.9-2.7-0.9h-1.4v7.2h1.4c1.2-0.1 2.1-0.4 2.7-1z"/>
		<path id="Layer" class="s0" d="m138.2 170.3v14h-3.9v-14z"/>
		<path id="Layer" fill-rule="evenodd" class="s0" d="m147.5 183.5c-1.1-0.6-2-1.5-2.6-2.6-0.6-1.1-1-2.3-1-3.7 0-1.4 0.3-2.6 1-3.7 0.6-1.1 1.5-1.9 2.6-2.6q1.7-0.9 3.6-0.9 1.9 0 3.6 0.9c1.1 0.6 2 1.5 2.6 2.6 0.6 1.1 1 2.3 1 3.7 0 1.4-0.3 2.6-1 3.7-0.6 1.1-1.5 2-2.6 2.6q-1.7 0.9-3.6 0.9-1.9 0-3.6-0.9zm5.9-3.7c0.6-0.6 0.9-1.5 0.9-2.6 0-1.1-0.3-2-0.9-2.6-0.6-0.6-1.4-1-2.4-1-1 0-1.8 0.3-2.4 1-0.6 0.6-0.9 1.5-0.9 2.6 0 1.1 0.3 2 0.9 2.6 0.6 0.6 1.4 1 2.4 1 1 0 1.9-0.3 2.4-1z"/>
	</g>
</svg>